<svg width="186" height="145" viewBox="0 0 186 145" xmlns="http://www.w3.org/2000/svg"><title>Page 1</title><g fill="none" fill-rule="evenodd"><path d="M70.907 57.158c0-18.17 8.489-34.347 21.705-44.816C82.867 4.622 70.556 0 57.158 0 25.59 0 0 25.591 0 57.158s25.59 57.158 57.157 57.158c13.397 0 25.709-4.622 35.454-12.342-13.216-10.469-21.704-26.646-21.704-44.816" fill="#E01F26"/><path d="M70.907 57.158c0 18.17 8.489 34.347 21.705 44.816 13.216-10.469 21.704-26.646 21.704-44.816s-8.489-34.347-21.704-44.816C79.396 22.811 70.907 38.988 70.907 57.158" fill="#E76224"/><path d="M184.724 85.943l-.535 1.371-.533-1.37h-.722v2.136h.512v-1.487l.465 1.278h.534l.488-1.278v1.487h.487v-2.137h-.696zm-4.042 0v.465h.673v1.672h.488v-1.672h.674v-.465h-1.835zM128.065 0c-13.398 0-25.709 4.622-35.454 12.342 13.216 10.47 21.704 26.646 21.704 44.816s-8.488 34.347-21.704 44.816c9.745 7.72 22.056 12.342 35.454 12.342 31.567 0 57.158-25.59 57.158-57.158S159.633 0 128.065 0" fill="#F29D1E"/></g></svg>