<?xml version="1.0" encoding="utf-8"?>
<svg viewBox="25.892 11.49 40.564 49.846" fill="#ffffff" style="enable-background:new 0 0 122.88 72.92" xmlns="http://www.w3.org/2000/svg">
  <g>
    <path d="M 56.59 60.85 C 55.81 60.62 55.01 59.69 54.84 58.8 C 54.73 58.22 54.86 57.82 55.69 56.21 C 59.05 49.71 60.51 43.73 60.51 36.48 C 60.51 29.47 59.22 24.01 56.01 17.47 C 55.32 16.07 54.76 14.76 54.76 14.57 C 54.76 13.87 55.34 12.86 55.97 12.47 C 56.83 11.93 58.28 12.03 58.98 12.68 C 59.25 12.93 59.94 14.07 60.52 15.21 C 62.82 19.72 64.39 24.67 65.17 29.82 C 65.65 33.01 65.75 39.05 65.36 41.97 C 64.65 47.35 63.23 52.16 60.95 56.86 C 59.57 59.7 58.71 60.87 57.99 60.87 C 57.85 60.87 57.61 60.91 57.47 60.95 C 57.33 60.99 56.93 60.95 56.59 60.85 Z M 47.24 55.96 C 46.04 55.61 45.17 54.13 45.52 53.03 C 45.6 52.76 46.17 51.53 46.78 50.29 C 49.35 45.04 50.42 39.42 49.9 33.9 C 49.47 29.36 48.66 26.5 46.61 22.32 C 45.24 19.51 45.17 19.08 45.97 17.94 C 46.73 16.86 48.63 16.69 49.62 17.6 C 50.31 18.23 52.46 22.72 53.29 25.26 C 56.03 33.66 55.61 42.69 52.1 50.94 C 50.29 55.17 49.02 56.48 47.24 55.96 Z M 37.6 51 C 36.86 50.67 36.22 49.88 36.04 49.09 C 35.93 48.61 36.12 48.07 37 46.29 C 40.24 39.73 40.27 33.42 37.11 27.01 C 35.72 24.2 35.69 23.64 36.86 22.53 C 37.44 21.98 37.69 21.89 38.5 21.89 C 39.87 21.89 40.58 22.58 41.8 25.09 C 43.68 28.95 44.45 32.3 44.44 36.59 C 44.43 41 43.71 44.03 41.71 48.1 C 40.56 50.43 39.99 51.05 38.84 51.2 C 38.49 51.23 37.93 51.15 37.6 51 Z M 28.6 46.38 C 28.01 46.14 27.34 45.34 27.14 44.64 C 26.92 43.86 27.1 43.24 27.98 41.79 C 29.12 39.92 29.38 38.92 29.38 36.48 C 29.38 34.04 29.12 33.03 27.98 31.17 C 27.59 30.54 27.21 29.78 27.12 29.48 C 26.75 28.25 27.78 26.74 29.16 26.48 C 30.33 26.26 31.13 26.78 32.21 28.46 C 35.32 33.32 35.32 39.8 32.21 44.62 C 31.11 46.31 29.89 46.91 28.6 46.38 Z"/>
  </g>
</svg>